<svg width="35" height="35" viewBox="0 0 35 35" fill="none" xmlns="http://www.w3.org/2000/svg">
<g clip-path="url(#clip0_1551_1260)">
<path d="M8.73639 22.4708L10.2189 26.2424C10.24 26.2974 10.2668 26.35 10.299 26.3994C10.934 27.3761 12.113 27.7903 13.1813 27.504C13.4416 27.4343 13.6936 27.3233 13.9313 27.169C15.1439 26.3803 15.4901 24.7512 14.7011 23.5376L13.4219 21.5695L13.6425 21.5104L21.1077 23.0385C21.2436 23.0655 21.38 23.0607 21.5093 23.026C21.664 22.9846 21.8065 22.9011 21.9193 22.7812C22.1282 22.5603 22.2074 22.2474 22.1289 21.9541L21.1908 18.4534C22.5442 17.6858 23.2735 16.0836 22.8527 14.5132C22.4319 12.9429 20.9992 11.92 19.4434 11.9319L18.5054 8.43116C18.4268 8.13788 18.202 7.90734 17.9112 7.81948C17.6204 7.73162 17.3058 7.80144 17.0789 8.00264L11.3787 13.0584L8.19739 13.9108C5.86722 14.5352 4.47943 16.9389 5.1038 19.269C5.57281 21.0194 7.04508 22.2374 8.73639 22.4708ZM13.2338 24.4916C13.497 24.8957 13.3823 25.4382 12.9773 25.7017C12.5925 25.9524 12.085 25.8601 11.8096 25.5054L10.5626 22.3357L11.6436 22.046L13.2338 24.4916ZM21.1623 14.9662C21.3292 15.5891 21.1314 16.22 20.7071 16.6481L19.9274 13.7381C20.5086 13.8958 20.9954 14.3433 21.1623 14.9662ZM20.0721 21.0395L14.3216 19.8628L12.7897 14.146L17.1815 10.2516L20.0721 21.0395ZM8.65032 15.6012L11.1859 14.9218L12.5447 19.9929L10.0091 20.6723C8.61119 21.0468 7.16875 20.214 6.79417 18.8161C6.41959 17.4182 7.25239 15.9757 8.65032 15.6012Z" fill="#414141"/>
<path d="M26.4602 14.4526L28.1506 13.9996C28.618 13.8744 28.8943 13.3945 28.7693 12.928C28.6443 12.4614 28.1651 12.184 27.6977 12.3092L26.0073 12.7622C25.5399 12.8874 25.2636 13.3673 25.3886 13.8338C25.5136 14.3004 25.9928 14.5778 26.4602 14.4526Z" fill="#414141"/>
<path d="M25.2612 9.97897C25.4776 9.921 25.6717 9.78019 25.7924 9.57122L26.6672 8.05591C26.9092 7.63689 26.766 7.10273 26.347 6.86082C25.928 6.6189 25.3939 6.76202 25.1519 7.18104L24.2771 8.69635C24.0351 9.11537 24.1783 9.64953 24.5973 9.89145C24.8065 10.0129 25.0448 10.0369 25.2612 9.97897Z" fill="#414141"/>
<path d="M28.5102 19.7134C28.7191 19.8341 28.9577 19.8589 29.1741 19.801C29.3904 19.743 29.5846 19.6022 29.7052 19.3932C29.9472 18.9742 29.804 18.44 29.385 18.1981L27.8697 17.3233C27.4507 17.0813 26.9165 17.2245 26.6746 17.6435C26.4327 18.0625 26.5758 18.5966 26.9948 18.8386L28.5102 19.7134Z" fill="#414141"/>
</g>
<defs>
<clipPath id="clip0_1551_1260">
<rect width="28" height="28" fill="white" transform="translate(0.0703125 7.24707) rotate(-15)"/>
</clipPath>
</defs>
</svg>
