<svg width="26" height="27" viewBox="0 0 26 27" fill="none" xmlns="http://www.w3.org/2000/svg">
<path d="M24.9163 21.0971C24.9163 21.6718 24.6881 22.2229 24.2817 22.6292C23.8754 23.0355 23.3243 23.2638 22.7497 23.2638H3.24967C2.67504 23.2638 2.12394 23.0355 1.71761 22.6292C1.31128 22.2229 1.08301 21.6718 1.08301 21.0971V9.18046C1.08301 8.60583 1.31128 8.05472 1.71761 7.6484C2.12394 7.24207 2.67504 7.01379 3.24967 7.01379H5.63C6.85013 7.01379 7.98953 6.404 8.66634 5.38879V5.38879C9.34315 4.37358 10.4825 3.76379 11.7027 3.76379H14.2967C15.5168 3.76379 16.6562 4.37358 17.333 5.38879V5.38879C18.0098 6.404 19.1492 7.01379 20.3693 7.01379H22.7497C23.3243 7.01379 23.8754 7.24207 24.2817 7.6484C24.6881 8.05472 24.9163 8.60583 24.9163 9.18046V21.0971Z" stroke="#888888" stroke-width="2" stroke-linecap="round" stroke-linejoin="round"/>
<path d="M13.0003 18.9305C15.3936 18.9305 17.3337 16.9904 17.3337 14.5971C17.3337 12.2039 15.3936 10.2638 13.0003 10.2638C10.6071 10.2638 8.66699 12.2039 8.66699 14.5971C8.66699 16.9904 10.6071 18.9305 13.0003 18.9305Z" stroke="#888888" stroke-linecap="round" stroke-linejoin="round"/>
</svg>
