<svg width="26" height="26" viewBox="0 0 26 26" fill="none" xmlns="http://www.w3.org/2000/svg">
<path d="M24.9163 20.5833C24.9163 21.158 24.6881 21.7091 24.2817 22.1154C23.8754 22.5217 23.3243 22.75 22.7497 22.75H3.24967C2.67504 22.75 2.12394 22.5217 1.71761 22.1154C1.31128 21.7091 1.08301 21.158 1.08301 20.5833V8.66667C1.08301 8.09203 1.31128 7.54093 1.71761 7.1346C2.12394 6.72827 2.67504 6.5 3.24967 6.5H5.63C6.85013 6.5 7.98953 5.89021 8.66634 4.875V4.875C9.34315 3.85979 10.4825 3.25 11.7027 3.25H14.2967C15.5168 3.25 16.6562 3.85979 17.333 4.875V4.875C18.0098 5.89021 19.1492 6.5 20.3693 6.5H22.7497C23.3243 6.5 23.8754 6.72827 24.2817 7.1346C24.6881 7.54093 24.9163 8.09203 24.9163 8.66667V20.5833Z" stroke="#AE8A5E" stroke-width="2" stroke-linecap="round" stroke-linejoin="round"/>
<path d="M13.0003 18.4167C15.3936 18.4167 17.3337 16.4766 17.3337 14.0833C17.3337 11.6901 15.3936 9.75 13.0003 9.75C10.6071 9.75 8.66699 11.6901 8.66699 14.0833C8.66699 16.4766 10.6071 18.4167 13.0003 18.4167Z" stroke="#B48D5E" stroke-linecap="round" stroke-linejoin="round"/>
</svg>
