<svg width="25" height="25" viewBox="0 0 25 25" fill="none" xmlns="http://www.w3.org/2000/svg">
<path d="M24.3504 9.89782H23.3585V9.84613H12.2823V14.7689H19.2369C17.8795 18.6145 13.6616 20.6315 9.81599 19.2741C5.9704 17.9166 3.95336 13.6987 5.3108 9.85316C6.66824 6.00757 10.8861 3.99052 14.7317 5.34796C15.6338 5.6664 16.4655 6.15711 17.1804 6.7928L20.6608 3.31242C15.6852 -1.3081 7.90609 -1.02029 3.28556 3.95527C-1.33496 8.93083 -1.04714 16.71 3.92841 21.3305C8.90397 25.951 16.6831 25.6632 21.3036 20.6877C23.4188 18.41 24.5927 15.4158 24.5892 12.3075C24.5884 11.4984 24.5085 10.6913 24.3504 9.89782Z" fill="#FFB307"/>
<path d="M1.39429 6.57857L5.43832 9.54452C6.95587 5.76804 11.2475 3.93682 15.024 5.45437C15.8152 5.77231 16.5452 6.22514 17.1815 6.79271L20.6619 3.31233C15.7079 -1.32138 7.93558 -1.06176 3.30187 3.89222C2.54825 4.69793 1.90661 5.60151 1.39429 6.57857Z" fill="#FF3D00"/>
<path d="M12.2798 24.6143C15.3309 24.6118 18.2713 23.4708 20.5254 21.4145L16.7102 18.1913C15.4369 19.1619 13.8808 19.6888 12.2798 19.6915C9.16717 19.6872 6.39147 17.7316 5.33993 14.802L1.32666 17.8947C3.42394 22.0158 7.65575 24.6119 12.2798 24.6143Z" fill="#4CA150"/>
<path d="M24.3503 9.89653H23.3584V9.84607H12.2822V14.7688H19.2381C18.7526 16.133 17.8781 17.325 16.7225 18.1975L20.5278 21.4145C23.149 19.1194 24.6332 15.7912 24.5891 12.3074C24.5885 11.4979 24.5085 10.6904 24.3503 9.89653Z" fill="#1976C4"/>
</svg>
