<svg width="22" height="27" viewBox="0 0 22 27" fill="none" xmlns="http://www.w3.org/2000/svg">
<path d="M18.361 14.3443C18.3989 18.4302 21.9454 19.7899 21.9847 19.8073C21.9547 19.9032 21.418 21.745 20.1162 23.6474C18.9909 25.2922 17.8229 26.931 15.983 26.9649C14.1752 26.9982 13.5938 25.8928 11.5269 25.8928C9.46063 25.8928 8.81475 26.931 7.10339 26.9982C5.32743 27.0654 3.97506 25.2196 2.84036 23.5809C0.521733 20.2287 -1.25018 14.1086 1.12905 9.97732C2.311 7.92574 4.42323 6.62659 6.71587 6.59328C8.45982 6.56001 10.1059 7.76655 11.172 7.76655C12.2374 7.76655 14.2377 6.31558 16.3406 6.52868C17.221 6.56532 19.6921 6.88428 21.2789 9.20691C21.151 9.28617 18.3303 10.9282 18.361 14.3443V14.3443ZM14.9633 4.31095C15.9061 3.16965 16.5407 1.58085 16.3676 0C15.0085 0.0546226 13.3651 0.905649 12.3903 2.04633C11.5166 3.05645 10.7515 4.67321 10.958 6.22277C12.4728 6.33998 14.0204 5.45299 14.9633 4.31096" fill="black"/>
</svg>
