<svg width="19" height="19" viewBox="0 0 19 19" fill="none" xmlns="http://www.w3.org/2000/svg">
<path opacity="0.9" d="M18.1664 14.3825C17.5853 13.2221 15.6006 12.4951 12.8543 11.4879C12.3318 11.2976 12.0025 11.2187 11.8552 10.7948C11.686 10.3821 11.7319 9.91275 11.9779 9.54047C13.0665 8.36745 13.6008 6.61028 13.6008 4.3416C13.6008 1.34195 11.5425 0 9.5 0C7.45749 0 5.39916 1.34195 5.39916 4.3416C5.39916 6.61028 5.93354 8.36745 7.02209 9.54047C7.2681 9.91276 7.31404 10.3821 7.14479 10.7948C6.99754 11.2187 6.66978 11.2976 6.14571 11.4879C3.39942 12.4951 1.4147 13.2245 0.833614 14.3825C0.320714 15.4378 0.0366868 16.589 0 17.7611C0 17.9791 0.177226 18.1558 0.395826 18.1558H18.6042C18.8228 18.1558 19 17.9791 19 17.7611C18.9633 16.589 18.6793 15.4378 18.1664 14.3825Z" fill="currentColor"/>
</svg>
